<svg width="24" height="24" viewBox="0 0 24 24" fill="none" xmlns="http://www.w3.org/2000/svg">
<path d="M6.95177 19.6701V15.8553H4.31726C3.9679 15.8553 3.63285 15.7165 3.38582 15.4695C3.13878 15.2225 3 14.8874 3 14.5381V5.31726C3 4.9679 3.13878 4.63285 3.38582 4.38582C3.63285 4.13878 3.9679 4 4.31726 4H18.8071C19.1565 4 19.4915 4.13878 19.7385 4.38582C19.9856 4.63285 20.1243 4.9679 20.1243 5.31726V14.5381C20.1243 14.8874 19.9856 15.2225 19.7385 15.4695C19.4915 15.7165 19.1565 15.8553 18.8071 15.8553H11.5622L7.51424 19.9033C7.46818 19.9494 7.40945 19.9809 7.3455 19.9936C7.28154 20.0064 7.21523 19.9999 7.15498 19.9749C7.09474 19.9499 7.04326 19.9076 7.00708 19.8534C6.97091 19.7991 6.95166 19.7353 6.95177 19.6701Z" stroke="white"/>
<path d="M6.95166 11.9029H16.1725M6.95166 7.95117H16.1725" stroke="white" stroke-linecap="round"/>
</svg>
