<svg width="24" height="24" viewBox="0 0 24 24" fill="none" xmlns="http://www.w3.org/2000/svg">
<path d="M8.3845 2.48058L7.5241 2.73978C6.75799 2.97081 6.07383 3.41589 5.55213 4.02262C5.03043 4.62936 4.69291 5.3725 4.5793 6.16458C4.2229 8.64618 5.0197 11.5478 6.9409 14.8754C8.8573 18.1946 10.9669 20.333 13.2889 21.269C14.035 21.5697 14.8517 21.6498 15.642 21.4998C16.4323 21.3498 17.1629 20.9761 17.7469 20.423L18.3973 19.8062C18.8196 19.4065 19.0825 18.867 19.137 18.2881C19.1915 17.7091 19.034 17.1301 18.6937 16.6586L17.0665 14.4026C16.8465 14.098 16.5367 13.8699 16.1806 13.7503C15.8244 13.6306 15.4398 13.6254 15.0805 13.7354L12.6193 14.4878L12.5557 14.4998C12.2845 14.5394 11.6581 13.9526 10.8781 12.6014C10.0621 11.1878 9.8941 10.361 10.1185 10.1474L11.3701 8.97978C11.8273 8.55283 12.1397 7.99362 12.2634 7.3804C12.3871 6.76717 12.316 6.13061 12.0601 5.55978L11.2657 3.79458C11.0268 3.26339 10.6029 2.83719 10.0731 2.59543C9.54317 2.35367 8.94225 2.31285 8.3845 2.48058ZM10.1737 4.28658L10.9657 6.05178C11.1194 6.39416 11.1622 6.77602 11.0882 7.14395C11.0142 7.51187 10.827 7.84746 10.5529 8.10378L9.2977 9.27258C8.4937 10.0334 8.7601 11.3318 9.8401 13.2014C10.8553 14.9606 11.7817 15.8294 12.7777 15.6782L12.9265 15.647L15.4321 14.8826C15.5519 14.8458 15.6801 14.8474 15.7989 14.8872C15.9177 14.927 16.0211 15.003 16.0945 15.1046L17.7217 17.3606C17.8921 17.5963 17.971 17.8859 17.9439 18.1755C17.9167 18.4651 17.7853 18.735 17.5741 18.935L16.9225 19.5518C16.5053 19.9466 15.9835 20.2134 15.4192 20.3204C14.8549 20.4274 14.2717 20.3701 13.7389 20.1554C11.7013 19.3346 9.7753 17.3822 7.9813 14.2754C6.1825 11.1614 5.4541 8.51298 5.7673 6.33498C5.84837 5.76909 6.08944 5.23815 6.46212 4.80467C6.8348 4.37119 7.32358 4.05321 7.8709 3.88818L8.7313 3.62898C9.01025 3.54516 9.31016 3.56565 9.57511 3.68665C9.84007 3.80764 10.052 4.02087 10.1713 4.28658" fill="white"/>
</svg>
