<svg width="43" height="40" viewBox="0 0 43 40" fill="none" xmlns="http://www.w3.org/2000/svg">
<path fill-rule="evenodd" clip-rule="evenodd" d="M4.767 0.0943069H33.1395C35.6395 0.0943069 37.6849 2.14099 37.6849 4.64259V31.1802C37.6849 33.6818 35.6395 35.7285 33.1395 35.7285H4.54547C2.04542 35.7285 0 33.6818 0 31.1802V4.86413C0 2.24063 2.14513 0.0943069 4.767 0.0943069Z" fill="white"/>
<path d="M40.3861 -0.000519514C40.6706 -0.000519514 40.948 0.0723298 41.2195 0.218159C41.49 0.364639 41.7015 0.5733 41.8526 0.845575C42.0037 1.11707 42.0795 1.40092 42.0795 1.69622C42.0795 1.98853 42.0051 2.26926 41.8557 2.53842C41.707 2.80848 41.4977 3.01792 41.2294 3.16674C40.9604 3.31621 40.6798 3.39062 40.3861 3.39062C40.0926 3.39062 39.8112 3.31621 39.5429 3.16674C39.2738 3.01792 39.0646 2.80848 38.9151 2.53842C38.7648 2.26926 38.6904 1.98853 38.6904 1.69622C38.6904 1.40092 38.7664 1.11707 38.9181 0.845575C39.0699 0.5733 39.2814 0.364639 39.5529 0.218159C39.8234 0.0723298 40.1017 -0.000519514 40.3861 -0.000519514ZM40.3861 0.280211C40.1477 0.280211 39.9161 0.341613 39.6908 0.463506C39.4654 0.585529 39.2891 0.760368 39.1618 0.986721C39.0346 1.21373 38.971 1.44997 38.971 1.69622C38.971 1.94014 39.0338 2.17417 39.1588 2.39818C39.2838 2.62206 39.4585 2.7969 39.6832 2.92205C39.9078 3.04706 40.1416 3.10989 40.3861 3.10989C40.6299 3.10989 40.8646 3.04706 41.0891 2.92205C41.3137 2.7969 41.4877 2.62206 41.612 2.39818C41.7361 2.17417 41.7981 1.94014 41.7981 1.69622C41.7981 1.44997 41.7353 1.21373 41.6088 0.986721C41.4824 0.760368 41.3061 0.585529 41.0798 0.463506C40.8538 0.341613 40.6222 0.280211 40.3861 0.280211ZM39.6425 2.63286V0.80876H40.2689C40.4835 0.80876 40.6383 0.824761 40.7342 0.858584C40.83 0.892277 40.9059 0.951467 40.9634 1.03498C41.02 1.11941 41.0485 1.20839 41.0485 1.30271C41.0485 1.43618 41.0009 1.55196 40.9059 1.65095C40.8109 1.74995 40.6844 1.80511 40.5272 1.81747C40.5915 1.84426 40.6437 1.87653 40.682 1.91412C40.7556 1.98619 40.8453 2.10665 40.9519 2.27616L41.1742 2.63286H40.8146L40.6529 2.3451C40.5256 2.11966 40.4237 1.97773 40.3456 1.92102C40.2919 1.87874 40.2128 1.85805 40.1093 1.85805H39.9369V2.63286H39.6425ZM39.9369 1.60646H40.2941C40.4644 1.60646 40.5809 1.58044 40.6429 1.52971C40.705 1.47911 40.7365 1.41159 40.7365 1.32729C40.7365 1.27357 40.7212 1.2253 40.6913 1.18224C40.6614 1.1401 40.62 1.10783 40.5671 1.08715C40.5134 1.06569 40.4152 1.0558 40.2712 1.0558H39.9369V1.60646Z" fill="white"/>
<path d="M4.31641 37.683H6.03576V37.8905C5.97895 37.8807 5.92968 37.8755 5.8882 37.8755H5.37766V39.8578C5.37766 39.8978 5.38299 39.9343 5.39313 39.968H4.96619C4.97633 39.9355 4.98166 39.8989 4.98166 39.8578V37.8755H4.46761C4.41898 37.8755 4.36854 37.8807 4.31641 37.8905V37.683ZM6.1893 39.968C6.19827 39.9331 6.20295 39.8966 6.20295 39.8578V37.6139C6.20295 37.5728 6.19827 37.5361 6.1893 37.5036H6.57945C6.57061 37.5361 6.5658 37.5728 6.5658 37.6139V38.4144C6.64355 38.3173 6.72532 38.2476 6.81139 38.2053C6.89784 38.163 7.00159 38.1418 7.12315 38.1418C7.31049 38.1418 7.45584 38.187 7.55841 38.2767C7.66099 38.3665 7.71195 38.4933 7.71195 38.6572V39.8578C7.71195 39.8954 7.71663 39.9321 7.72561 39.968H7.33545C7.34429 39.9366 7.3491 39.9001 7.3491 39.8578V38.7726C7.3491 38.6412 7.32063 38.5447 7.26317 38.4836C7.20557 38.4224 7.11665 38.3916 6.99457 38.3916C6.85221 38.3916 6.74613 38.4293 6.67553 38.5053C6.6026 38.5853 6.5658 38.6852 6.5658 38.8046V39.8578C6.5658 39.8966 6.57061 39.9331 6.57945 39.968H6.1893ZM9.66311 39.8492C9.54338 39.9063 9.43846 39.9458 9.34654 39.9675C9.25515 39.9892 9.14854 40 9.02699 40C8.71094 40 8.47146 39.9109 8.30778 39.732C8.16191 39.5749 8.08898 39.3589 8.08898 39.084C8.08898 38.7807 8.17257 38.5447 8.33924 38.3761C8.4933 38.2201 8.69728 38.1418 8.95223 38.1418C9.19886 38.1418 9.39153 38.2167 9.52908 38.367C9.66675 38.5173 9.74073 38.7322 9.75152 39.0121H8.46782C8.46782 39.2075 8.49031 39.3635 8.53542 39.4812C8.62383 39.7143 8.80337 39.8309 9.07561 39.8309C9.2623 39.8309 9.44015 39.7618 9.60916 39.6229L9.66311 39.8492ZM8.47848 38.855H9.36436C9.35487 38.7532 9.34004 38.671 9.31924 38.607C9.28778 38.512 9.23448 38.4361 9.1592 38.3778C9.09693 38.3298 9.02165 38.3059 8.93325 38.3059C8.80818 38.3059 8.70561 38.3539 8.62617 38.4499C8.54609 38.5459 8.49694 38.6806 8.47848 38.855ZM11.0872 37.683H12.317V37.8688C12.2808 37.8578 12.244 37.8521 12.2054 37.8521H11.4987V38.7224H12.1864C12.2362 38.7224 12.2795 38.7172 12.317 38.7076V38.8932C12.2855 38.8863 12.2434 38.8829 12.1901 38.8829H11.4987V39.7841H12.1847C12.2232 39.7841 12.267 39.7783 12.317 39.7674V39.968H11.089C11.0979 39.9343 11.1027 39.8983 11.1027 39.8595V37.7933C11.1027 37.7475 11.0974 37.711 11.0872 37.683ZM12.7769 38.3493H12.5025V38.1836H12.7769V37.8385L13.1469 37.8002C13.1423 37.8659 13.1398 37.9092 13.1398 37.9309V38.1836H13.4387V38.3493H13.1398V39.64C13.1398 39.7458 13.1855 39.7989 13.2775 39.7989C13.3213 39.7989 13.3771 39.7812 13.444 39.7452V39.9298C13.3432 39.9766 13.2389 40 13.1316 40C13.01 40 12.9205 39.9715 12.863 39.9149C12.8055 39.8578 12.7769 39.7692 12.7769 39.6498V38.3493ZM13.7381 39.968C13.7471 39.9331 13.7517 39.8966 13.7517 39.8578V37.6139C13.7517 37.5728 13.7471 37.5361 13.7381 37.5036H14.1282C14.1193 37.5361 14.1146 37.5728 14.1146 37.6139V38.4144C14.1922 38.3173 14.2741 38.2476 14.36 38.2053C14.4466 38.163 14.5504 38.1418 14.6719 38.1418C14.8593 38.1418 15.0045 38.187 15.1071 38.2767C15.2096 38.3665 15.2606 38.4933 15.2606 38.6572V39.8578C15.2606 39.8954 15.2654 39.9321 15.2743 39.968H14.8841C14.8931 39.9366 14.8978 39.9001 14.8978 39.8578V38.7726C14.8978 38.6412 14.8693 38.5447 14.8118 38.4836C14.7542 38.4224 14.6653 38.3916 14.5432 38.3916C14.401 38.3916 14.2948 38.4293 14.2243 38.5053C14.1514 38.5853 14.1146 38.6852 14.1146 38.8046V39.8578C14.1146 39.8966 14.1193 39.9331 14.1282 39.968H13.7381ZM15.9265 37.7013C15.997 37.7013 16.0522 37.7155 16.0925 37.7441C16.1322 37.7721 16.1523 37.811 16.1523 37.8602C16.1523 37.9116 16.1322 37.9521 16.0925 37.9813C16.0522 38.0109 15.9981 38.0259 15.93 38.0259C15.7758 38.0259 15.6987 37.9715 15.6987 37.8636C15.6987 37.8144 15.7195 37.775 15.7605 37.7458C15.8013 37.7162 15.8571 37.7013 15.9265 37.7013ZM15.7249 38.1836H16.115C16.1062 38.2184 16.1014 38.255 16.1014 38.2939V39.8578C16.1014 39.8954 16.1062 39.9321 16.115 39.968H15.7249C15.7337 39.9343 15.7385 39.8978 15.7385 39.8578V38.2939C15.7385 38.2527 15.7337 38.2161 15.7249 38.1836ZM17.87 39.8726C17.7336 39.9286 17.6352 39.9634 17.5764 39.9783C17.5172 39.9926 17.4401 40 17.3453 40C17.0838 40 16.881 39.9217 16.7375 39.7657C16.5846 39.5995 16.508 39.3754 16.508 39.0943C16.508 38.7733 16.6048 38.5258 16.798 38.3527C16.957 38.2121 17.1644 38.1418 17.4217 38.1418C17.5628 38.1418 17.7123 38.1676 17.87 38.2184V38.4795C17.7822 38.4127 17.7081 38.3675 17.6482 38.3436C17.5889 38.3195 17.5208 38.3075 17.4442 38.3075C17.2753 38.3075 17.1436 38.3744 17.05 38.5087C16.9492 38.6503 16.8988 38.8378 16.8988 39.0709C16.8988 39.2744 16.9368 39.4447 17.0132 39.5818C17.1017 39.7389 17.2379 39.8177 17.4235 39.8177C17.5036 39.8177 17.5771 39.8034 17.644 39.7749C17.711 39.7463 17.7864 39.6972 17.87 39.6264V39.8726ZM19.1263 39.7286C19.0516 39.8137 18.984 39.8732 18.9229 39.908C18.8139 39.9692 18.69 40 18.5512 40C18.4084 40 18.2938 39.9601 18.2074 39.8794C18.1006 39.7824 18.0472 39.6527 18.0472 39.4891C18.0472 39.2954 18.1231 39.1504 18.275 39.0544C18.3419 39.0115 18.4054 38.9795 18.4652 38.9579C18.5245 38.9361 18.6597 38.8944 18.8708 38.8332C18.9586 38.8075 19.0213 38.7761 19.0581 38.7384C19.0955 38.7012 19.1139 38.6503 19.1139 38.5853C19.1139 38.5092 19.0825 38.448 19.0202 38.4007C18.9574 38.3532 18.8761 38.3293 18.7752 38.3293C18.6881 38.3293 18.611 38.3424 18.5434 38.3692C18.4753 38.3961 18.3924 38.4458 18.2938 38.5184L18.2352 38.2904C18.3609 38.2338 18.47 38.195 18.5612 38.1738C18.6532 38.1527 18.7581 38.1418 18.8773 38.1418C19.0688 38.1418 19.2164 38.1779 19.3202 38.2498C19.4245 38.3219 19.4766 38.4236 19.4766 38.555V39.6149C19.4766 39.7177 19.5129 39.7692 19.5858 39.7692C19.6148 39.7692 19.6551 39.7509 19.7074 39.7138V39.9109C19.6113 39.9703 19.5201 40 19.4333 40C19.3427 40 19.2751 39.9801 19.2295 39.9395C19.1839 39.8994 19.1494 39.8292 19.1263 39.7286ZM19.1139 38.9035C19.0676 38.9281 19.0338 38.9447 19.0125 38.9538C18.9912 38.9624 18.8993 38.9966 18.7368 39.0556C18.6105 39.1017 18.5233 39.1583 18.4747 39.2264C18.4249 39.2961 18.4 39.3715 18.4 39.4544C18.4 39.5492 18.4273 39.6252 18.4825 39.6828C18.5376 39.7406 18.6105 39.7692 18.7024 39.7692C18.8447 39.7692 18.9562 39.7126 19.0373 39.6001C19.0883 39.5286 19.1139 39.4514 19.1139 39.3687V38.9035ZM20.3364 37.5036C20.3275 37.5361 20.3227 37.5728 20.3227 37.6139V39.8578C20.3227 39.8954 20.3275 39.9321 20.3364 39.968H19.9462C19.9552 39.9331 19.9599 39.8966 19.9599 39.8578V37.6139C19.9599 37.5739 19.9552 37.5373 19.9462 37.5036H20.3364ZM21.7765 37.683H22.5769C22.7726 37.683 22.9315 37.7241 23.053 37.807C23.1924 37.903 23.2617 38.0498 23.2617 38.2469C23.2617 38.4527 23.1776 38.5996 23.0097 38.6892C22.9564 38.7172 22.8812 38.7446 22.7839 38.7726C22.8893 38.7915 22.9759 38.8207 23.0447 38.8602C23.2209 38.9589 23.3086 39.1206 23.3086 39.3434C23.3086 39.5646 23.2209 39.7332 23.0459 39.8492C22.928 39.9286 22.7892 39.968 22.6291 39.968H21.7765C21.7866 39.9378 21.7919 39.9006 21.7919 39.8555V37.7921C21.7919 37.747 21.7866 37.711 21.7765 37.683ZM22.1881 38.7093H22.3581C22.51 38.7093 22.6256 38.683 22.7045 38.6304C22.8141 38.5578 22.8692 38.4315 22.8692 38.2504C22.8692 37.9858 22.7263 37.8538 22.44 37.8538H22.1881V38.7093ZM22.1881 39.792H22.4697C22.7601 39.792 22.9055 39.6458 22.9055 39.3539C22.9055 39.1817 22.8532 39.0544 22.7489 38.972C22.7015 38.9338 22.6492 38.9075 22.5918 38.8927C22.5343 38.8772 22.4584 38.8698 22.3635 38.8698H22.1881V39.792ZM24.8525 39.968V39.7234C24.7867 39.8109 24.7226 39.8732 24.6615 39.9114C24.5644 39.9703 24.4416 40 24.2946 40C24.0965 40 23.9441 39.9458 23.838 39.8378C23.7497 39.748 23.7058 39.6195 23.7058 39.4509V38.2921C23.7058 38.2545 23.7011 38.2184 23.6921 38.1836H24.0823C24.0735 38.2149 24.0686 38.251 24.0686 38.2921V39.412C24.0686 39.508 24.0924 39.5846 24.1398 39.6417C24.2027 39.7143 24.2963 39.7504 24.4215 39.7504C24.5484 39.7504 24.6503 39.7155 24.7286 39.6458C24.8068 39.576 24.846 39.4852 24.846 39.3738V38.2921C24.846 38.2533 24.8412 38.2173 24.8323 38.1836H25.2225C25.2136 38.2127 25.2088 38.2487 25.2088 38.2921V39.8578C25.2088 39.8932 25.2136 39.9303 25.2225 39.968H24.8525ZM25.8758 37.7013C25.9464 37.7013 26.0015 37.7155 26.0418 37.7441C26.0816 37.7721 26.1017 37.811 26.1017 37.8602C26.1017 37.9116 26.0816 37.9521 26.0418 37.9813C26.0015 38.0109 25.9475 38.0259 25.8794 38.0259C25.7252 38.0259 25.6481 37.9715 25.6481 37.8636C25.6481 37.8144 25.6689 37.775 25.7099 37.7458C25.7507 37.7162 25.8065 37.7013 25.8758 37.7013ZM25.6742 38.1836H26.0643C26.0554 38.2184 26.0507 38.255 26.0507 38.2939V39.8578C26.0507 39.8954 26.0554 39.9321 26.0643 39.968H25.6742C25.6831 39.9343 25.6879 39.8978 25.6879 39.8578V38.2939C25.6879 38.2527 25.6831 38.2161 25.6742 38.1836ZM26.9264 37.5036C26.9175 37.5361 26.9128 37.5728 26.9128 37.6139V39.8578C26.9128 39.8954 26.9175 39.9321 26.9264 39.968H26.5363C26.5452 39.9331 26.5499 39.8966 26.5499 39.8578V37.6139C26.5499 37.5739 26.5452 37.5373 26.5363 37.5036H26.9264ZM28.5018 39.7086C28.4395 39.792 28.3831 39.8526 28.3333 39.8897C28.2349 39.9634 28.111 40 27.9616 40C27.7464 40 27.5809 39.9161 27.4654 39.7475C27.3473 39.5744 27.288 39.3492 27.288 39.0726C27.288 38.7869 27.3545 38.5567 27.4879 38.3812C27.6094 38.2218 27.7831 38.1418 28.0091 38.1418C28.1187 38.1418 28.2124 38.1602 28.2883 38.1961C28.3648 38.2327 28.4347 38.2915 28.497 38.3727V37.6139C28.497 37.5739 28.4923 37.5373 28.4833 37.5036H28.8735C28.8646 37.5385 28.8598 37.575 28.8598 37.6139V39.8578C28.8598 39.8954 28.8646 39.9321 28.8735 39.968H28.5018V39.7086ZM28.101 38.331C28.0026 38.331 27.9177 38.3653 27.8472 38.4332C27.7292 38.5493 27.6705 38.7618 27.6705 39.0709C27.6705 39.5417 27.8074 39.7772 28.0813 39.7772C28.2237 39.7772 28.3316 39.715 28.4051 39.5904C28.4786 39.4664 28.5154 39.2835 28.5154 39.0424C28.5154 38.5738 28.3772 38.3367 28.101 38.331ZM30.807 39.8492C30.6871 39.9063 30.5822 39.9458 30.4903 39.9675C30.399 39.9892 30.2923 40 30.1707 40C29.8548 40 29.6152 39.9109 29.4516 39.732C29.3058 39.5749 29.2328 39.3589 29.2328 39.084C29.2328 38.7807 29.3164 38.5447 29.483 38.3761C29.6371 38.2201 29.841 38.1418 30.0959 38.1418C30.3427 38.1418 30.5354 38.2167 30.6729 38.367C30.8105 38.5173 30.8846 38.7322 30.8952 39.0121H29.6117C29.6117 39.2075 29.6342 39.3635 29.6793 39.4812C29.7675 39.7143 29.9472 39.8309 30.2193 39.8309C30.4061 39.8309 30.584 39.7618 30.753 39.6229L30.807 39.8492ZM29.6223 38.855H30.5081C30.4986 38.7532 30.4838 38.671 30.4631 38.607C30.4316 38.512 30.3782 38.4361 30.3029 38.3778C30.2406 38.3298 30.1654 38.3059 30.0771 38.3059C29.9519 38.3059 29.8495 38.3539 29.77 38.4499C29.6899 38.5459 29.6407 38.6806 29.6223 38.855ZM31.2338 38.1836H31.6055V38.411C31.6393 38.3183 31.6897 38.2527 31.7573 38.2127C31.8249 38.1733 31.928 38.1492 32.0674 38.1418V38.4162C32.0396 38.415 32.0199 38.4144 32.0099 38.4144C31.7437 38.4144 31.6103 38.5545 31.6103 38.8349V39.8578C31.6103 39.8978 31.615 39.9343 31.6239 39.968H31.2338C31.2427 39.9321 31.2474 39.8954 31.2474 39.8578V38.2939C31.2474 38.2538 31.2427 38.2173 31.2338 38.1836Z" fill="white"/>
<path d="M16.591 4.68935V10.4883H20.0332C20.9283 10.4883 21.5236 10.3628 21.8233 10.1116C22.2255 9.77906 22.4463 9.19549 22.4936 8.35707H22.9194V13.4654H22.4936C22.3871 12.7525 22.2768 12.2945 22.1703 12.0914C22.0323 11.8402 21.8035 11.6408 21.4881 11.4966C21.1727 11.3526 20.6877 11.2787 20.0332 11.2787H16.591V16.1174C16.591 16.7674 16.6226 17.1626 16.6817 17.303C16.7448 17.4433 16.8513 17.5542 17.0049 17.6391C17.1587 17.7203 17.4545 17.761 17.8843 17.761H20.5418C21.4251 17.761 22.0717 17.7056 22.47 17.5874C22.8721 17.4729 23.2546 17.2476 23.6252 16.9078C24.1023 16.4608 24.5913 15.7849 25.0921 14.8837H25.5534L24.2049 18.5625H12.1316V18.1636H12.6875C13.0541 18.1636 13.4051 18.0787 13.7363 17.9124C13.9847 17.798 14.1504 17.6243 14.241 17.3953C14.3277 17.1626 14.3711 16.6899 14.3711 15.977V6.44386C14.3711 5.51294 14.2726 4.94055 14.0714 4.72252C13.7954 4.43451 13.3342 4.2905 12.6875 4.2905H12.1316V3.88788H24.2049L24.3783 7.10132H23.9249C23.7633 6.32925 23.5858 5.80109 23.3886 5.51294C23.1915 5.22493 22.9037 5.00326 22.5173 4.85183C22.2097 4.74477 21.6656 4.68935 20.8888 4.68935H16.591Z" fill="black"/>
<path d="M8.29669 22.0732V23.8501H9.35925C9.63551 23.8501 9.81934 23.8116 9.91178 23.7347C10.0359 23.6328 10.1042 23.4539 10.1188 23.197H10.2502V24.7624H10.1188C10.0859 24.544 10.0518 24.4036 10.0189 24.3413C9.97639 24.2643 9.9058 24.2033 9.80842 24.1592C9.71105 24.1149 9.56128 24.0923 9.35925 24.0923H8.29669V25.575C8.29669 25.7742 8.30644 25.8953 8.32464 25.9382C8.34414 25.9813 8.37704 26.0153 8.42449 26.0413C8.47194 26.0661 8.56321 26.0786 8.69594 26.0786H9.51629C9.78892 26.0786 9.98848 26.0617 10.1115 26.0254C10.2356 25.9904 10.3537 25.9213 10.4681 25.8173C10.6154 25.6803 10.7662 25.4731 10.9208 25.197H11.0633L10.647 26.3242H6.92017V26.2019H7.09178C7.20488 26.2019 7.31331 26.1759 7.4155 26.1251C7.4922 26.0899 7.54329 26.0367 7.57125 25.9666C7.59803 25.8953 7.61142 25.7504 7.61142 25.532V22.6108C7.61142 22.3256 7.581 22.1502 7.51898 22.0833C7.43383 21.9951 7.29134 21.9509 7.09178 21.9509H6.92017V21.8276H10.647L10.7005 22.8122H10.5605C10.5106 22.5757 10.4559 22.4139 10.395 22.3256C10.3342 22.2374 10.2454 22.1695 10.126 22.123C10.0311 22.0901 9.86316 22.0732 9.62342 22.0732H8.29669ZM15.4168 25.0804L15.535 25.1041L15.1212 26.3242H11.3772V26.2019H11.5598C11.7643 26.2019 11.9104 26.1398 11.998 26.0164C12.0479 25.9451 12.0723 25.781 12.0723 25.5252V22.6232C12.0723 22.3426 12.0394 22.1671 11.9724 22.097C11.88 21.9997 11.7424 21.9509 11.5598 21.9509H11.3772V21.8276H13.5668V21.9509C13.3101 21.9487 13.1299 21.9702 13.0264 22.0166C12.923 22.063 12.8524 22.1218 12.8147 22.1931C12.7769 22.2634 12.7574 22.4331 12.7574 22.7002V25.5252C12.7574 25.7085 12.7769 25.8342 12.8147 25.9031C12.8427 25.9496 12.8865 25.9835 12.9462 26.0062C13.0057 26.0277 13.1907 26.0391 13.5023 26.0391H13.8553C14.2265 26.0391 14.487 26.0141 14.6367 25.9632C14.7864 25.9122 14.9227 25.8217 15.0468 25.6928C15.1698 25.5637 15.294 25.3588 15.4168 25.0804ZM17.946 26.2019V26.3242H15.8733V26.2019H16.0449C16.2445 26.2019 16.3893 26.1477 16.4794 26.0391C16.5366 25.9688 16.5658 25.7979 16.5658 25.5286V22.6232C16.5658 22.3957 16.55 22.2452 16.5196 22.1728C16.4953 22.1173 16.4466 22.0698 16.3736 22.0301C16.2689 21.9769 16.1593 21.9509 16.0449 21.9509H15.8733V21.8276H17.946V21.9509H17.7708C17.5737 21.9509 17.43 22.0053 17.3399 22.1129C17.2802 22.1842 17.2498 22.3539 17.2498 22.6232V25.5286C17.2498 25.7561 17.2657 25.9066 17.2961 25.9791C17.3204 26.0345 17.3703 26.082 17.4459 26.1217C17.5481 26.1749 17.6564 26.2019 17.7708 26.2019H17.946ZM21.1046 23.8343L22.1427 25.2728C22.43 25.6712 22.6429 25.9224 22.783 26.0277C22.9217 26.133 23.0981 26.1906 23.3123 26.2019V26.3242H21.2372V26.2019C21.3747 26.1997 21.4769 26.1862 21.5438 26.1612C21.5938 26.142 21.6339 26.1114 21.6668 26.0707C21.6984 26.03 21.7143 25.9881 21.7143 25.9462C21.7143 25.8953 21.7034 25.8443 21.6827 25.7935C21.6655 25.7561 21.5999 25.6587 21.4866 25.5014L20.6663 24.3482L19.6537 25.5546C19.5465 25.6837 19.4821 25.7685 19.4614 25.8115C19.4395 25.8546 19.4285 25.8997 19.4285 25.9462C19.4285 26.0175 19.4614 26.0752 19.5247 26.1217C19.5892 26.1681 19.712 26.1952 19.8922 26.2019V26.3242H18.1773V26.2019C18.299 26.1906 18.4025 26.1669 18.4914 26.1318C18.6386 26.0741 18.7786 25.9972 18.9112 25.8997C19.0451 25.8024 19.1972 25.6531 19.3676 25.4516L20.5094 24.1127L19.5576 22.8156C19.2982 22.4648 19.078 22.2338 18.8979 22.1252C18.7164 22.0154 18.5084 21.9577 18.2735 21.9509V21.8276H20.5094V21.9509C20.3194 21.9577 20.1892 21.986 20.1186 22.037C20.0493 22.0879 20.0139 22.1445 20.0139 22.2056C20.0139 22.2882 20.0713 22.407 20.1844 22.5644L20.9268 23.5955L21.7861 22.5837C21.8859 22.4648 21.9467 22.3833 21.9699 22.3392C21.9919 22.2939 22.0039 22.2487 22.0039 22.2022C22.0039 22.1558 21.9894 22.1151 21.9601 22.08C21.9249 22.0336 21.8798 22.0007 21.8251 21.9826C21.7703 21.9634 21.6571 21.9532 21.4866 21.9509V21.8276H23.2016V21.9509C23.0665 21.9577 22.9557 21.9769 22.8693 22.0098C22.7415 22.0607 22.6234 22.1298 22.5163 22.2158C22.4093 22.3019 22.2584 22.4614 22.0636 22.6935L21.1046 23.8343ZM25.6517 26.2019V26.3242H23.5789V26.2019H23.7505C23.9502 26.2019 24.095 26.1477 24.1851 26.0391C24.2423 25.9688 24.2714 25.7979 24.2714 25.5286V22.6232C24.2714 22.3957 24.2557 22.2452 24.2253 22.1728C24.201 22.1173 24.1522 22.0698 24.0791 22.0301C23.9745 21.9769 23.865 21.9509 23.7505 21.9509H23.5789V21.8276H25.6517V21.9509H25.4763C25.2792 21.9509 25.1356 22.0053 25.0455 22.1129C24.9859 22.1842 24.9555 22.3539 24.9555 22.6232V25.5286C24.9555 25.7561 24.9713 25.9066 25.0017 25.9791C25.0261 26.0345 25.076 26.082 25.1514 26.1217C25.2536 26.1749 25.3621 26.2019 25.4763 26.2019H25.6517ZM30.7648 26.3242H29.4734L27.8365 24.2225C27.716 24.2259 27.6173 24.2281 27.5407 24.2281C27.5102 24.2281 27.4774 24.2281 27.4409 24.2271C27.4055 24.2259 27.369 24.2247 27.3301 24.2225V25.5286C27.3301 25.8115 27.3642 25.987 27.43 26.056C27.5212 26.1534 27.6563 26.2019 27.8365 26.2019H28.0263V26.3242H25.9548V26.2019H26.1361C26.3406 26.2019 26.4866 26.1398 26.5742 26.0164C26.6242 25.9474 26.6498 25.7844 26.6498 25.5286V22.6232C26.6498 22.3403 26.6157 22.1649 26.5499 22.097C26.4574 21.9997 26.3187 21.9509 26.1361 21.9509H25.9548V21.8276H27.716C28.2295 21.8276 28.6081 21.8627 28.8515 21.9328C29.095 22.0019 29.3018 22.1298 29.4723 22.3166C29.6414 22.5044 29.7267 22.7262 29.7267 22.9854C29.7267 23.2615 29.6305 23.5016 29.4357 23.7053C29.2421 23.9078 28.9429 24.0516 28.5363 24.1354L29.5343 25.4256C29.7619 25.7222 29.9591 25.919 30.1222 26.0164C30.2865 26.1126 30.5007 26.1749 30.7648 26.2019V26.3242ZM27.3301 24.0131C27.3764 24.0131 27.4153 24.0131 27.4482 24.0142C27.4811 24.0154 27.509 24.0164 27.5297 24.0164C27.9909 24.0164 28.3391 23.9237 28.5729 23.7381C28.8077 23.5524 28.9245 23.3159 28.9245 23.0284C28.9245 22.7477 28.8296 22.5191 28.641 22.3436C28.4523 22.1683 28.2016 22.08 27.8899 22.08C27.7525 22.08 27.5662 22.1014 27.3301 22.1433V24.0131Z" fill="black"/>
<path d="M9.25247 29.5131H11.1921V28.5227C11.1921 28.3482 11.1784 28.2332 11.1521 28.1779C11.1311 28.1364 11.0878 28.1001 11.0215 28.0699C10.9331 28.0292 10.8393 28.0094 10.7404 28.0094H10.5919V27.916H12.3862V28.0094H12.2377C12.1388 28.0094 12.045 28.0284 11.9566 28.0673C11.8902 28.0941 11.845 28.1347 11.8218 28.1891C11.7976 28.2436 11.7861 28.355 11.7861 28.5227V30.7471C11.7861 30.9209 11.7997 31.0358 11.826 31.0912C11.8472 31.1335 11.8892 31.1698 11.9535 31.2C12.044 31.2407 12.1388 31.2604 12.2377 31.2604H12.3862V31.3538H10.5919V31.2604H10.7404C10.912 31.2604 11.0363 31.2191 11.1152 31.137C11.1668 31.0825 11.1921 30.9529 11.1921 30.7471V29.6998H9.25247V30.7471C9.25247 30.9209 9.26612 31.0358 9.29252 31.0912C9.31254 31.1335 9.35557 31.1698 9.422 31.2C9.51041 31.2407 9.6031 31.2604 9.70217 31.2604H9.85272V31.3538H8.05835V31.2604H8.20682C8.38064 31.2604 8.50584 31.2191 8.58475 31.137C8.63428 31.0825 8.6586 30.9529 8.6586 30.7471V28.5227C8.6586 28.3482 8.64482 28.2332 8.61855 28.1779C8.59749 28.1364 8.55537 28.1001 8.49115 28.0699C8.40053 28.0292 8.30575 28.0094 8.20682 28.0094H8.05835V27.916H9.85272V28.0094H9.70217C9.6031 28.0094 9.51041 28.0284 9.422 28.0673C9.35778 28.0941 9.31358 28.1347 9.28926 28.1891C9.26508 28.2436 9.25247 28.355 9.25247 28.5227V29.5131ZM14.8219 27.8382C15.3641 27.8382 15.8349 28.0076 16.2318 28.3463C16.6299 28.6852 16.8289 29.1077 16.8289 29.6151C16.8289 30.137 16.6289 30.5701 16.2277 30.9148C15.8275 31.2597 15.342 31.4316 14.7724 31.4316C14.1975 31.4316 13.7141 31.263 13.3224 30.9269C12.9307 30.5907 12.7347 30.156 12.7347 29.622C12.7347 29.0767 12.9612 28.6316 13.4129 28.2868C13.8057 27.9877 14.2753 27.8382 14.8219 27.8382ZM14.7629 28.0197C14.3901 28.0197 14.0899 28.1338 13.8646 28.3619C13.5836 28.6463 13.4424 29.062 13.4424 29.6099C13.4424 30.1707 13.5877 30.6028 13.8795 30.9053C14.1037 31.1352 14.3986 31.2502 14.766 31.2502C15.1589 31.2502 15.4821 31.124 15.738 30.8725C15.9939 30.6201 16.1213 30.2235 16.1213 29.6808C16.1213 29.0921 15.9801 28.6532 15.699 28.3645C15.4737 28.1347 15.162 28.0197 14.7629 28.0197ZM19.6605 31.3538L18.043 28.4613V30.7575C18.043 30.9693 18.0714 31.1015 18.1272 31.1542C18.2042 31.2251 18.3262 31.2604 18.4937 31.2604H18.6432V31.3538H17.1711V31.2604H17.3217C17.5007 31.2604 17.6271 31.2165 17.7029 31.1283C17.7481 31.0739 17.7714 30.9502 17.7714 30.7575V28.5123C17.7714 28.3603 17.7503 28.2495 17.7092 28.1822C17.6797 28.133 17.626 28.0923 17.548 28.0586C17.4691 28.0258 17.3438 28.0094 17.1711 28.0094V27.916H18.3715L19.8815 30.6038L21.3779 27.916H22.5667V28.0094H22.4205C22.2382 28.0094 22.1108 28.0535 22.035 28.1416C21.9897 28.196 21.9666 28.3197 21.9666 28.5123V30.7575C21.9666 30.9693 21.996 31.1015 22.054 31.1542C22.1308 31.2251 22.253 31.2604 22.4205 31.2604H22.5667V31.3538H20.7725V31.2604H20.923C21.1041 31.2604 21.2305 31.2165 21.3042 31.1283C21.3495 31.0739 21.3726 30.9502 21.3726 30.7575V28.4613L19.7615 31.3538H19.6605ZM24.0147 28.1027V29.4612H24.9372C25.1761 29.4612 25.3351 29.4318 25.4152 29.3731C25.5226 29.2953 25.5816 29.1587 25.5942 28.9635H25.708V30.1612H25.5942C25.5657 29.9935 25.5362 29.8855 25.5079 29.8381C25.471 29.7793 25.41 29.7326 25.3256 29.6989C25.2415 29.6652 25.1119 29.6479 24.9372 29.6479H24.0147V30.7817C24.0147 30.9338 24.0231 31.0263 24.0389 31.0591C24.0558 31.092 24.0842 31.1188 24.1253 31.1378C24.1663 31.1577 24.2452 31.1672 24.36 31.1672H25.0687C25.3046 31.1672 25.4763 31.1534 25.5837 31.1266C25.69 31.0998 25.7933 31.0462 25.8912 30.9667C26.0186 30.8621 26.1492 30.7039 26.2829 30.4931H26.4092L26.0481 31.3538H22.8205V31.2604H22.9691C23.068 31.2604 23.1618 31.2407 23.2502 31.2018C23.3166 31.175 23.3618 31.1343 23.385 31.0799C23.4092 31.0254 23.4207 30.9148 23.4207 30.7471V28.5123C23.4207 28.2946 23.3945 28.1606 23.3408 28.1105C23.266 28.0431 23.1428 28.0094 22.9691 28.0094H22.8205V27.916H26.0491L26.0933 28.6731H25.9733C25.9302 28.4907 25.8827 28.3655 25.83 28.2972C25.7774 28.2289 25.6995 28.177 25.5973 28.1408C25.5153 28.1157 25.3699 28.1027 25.1625 28.1027H24.0147ZM29.4535 27.8382V29.0257H29.3397C29.3029 28.7975 29.2366 28.616 29.1408 28.4812C29.0449 28.3463 28.9081 28.2393 28.7301 28.1598C28.5532 28.0802 28.37 28.0405 28.1803 28.0405C27.9656 28.0405 27.7886 28.0941 27.6486 28.2012C27.5086 28.3083 27.438 28.4312 27.438 28.5676C27.438 28.6722 27.4822 28.7681 27.5707 28.8546C27.6992 28.9808 28.0025 29.1502 28.4826 29.361C28.8743 29.5338 29.1419 29.6661 29.285 29.7577C29.4283 29.8502 29.5388 29.9581 29.6156 30.0834C29.6926 30.2088 29.7315 30.3393 29.7315 30.4767C29.7315 30.7368 29.6083 30.9606 29.363 31.1491C29.1165 31.3375 28.7996 31.4316 28.4132 31.4316C28.291 31.4316 28.1772 31.4238 28.0698 31.4082C28.0056 31.3996 27.874 31.3685 27.6728 31.315C27.4727 31.2614 27.3453 31.2346 27.2916 31.2346C27.2401 31.2346 27.199 31.2476 27.1695 31.2725C27.14 31.2986 27.1179 31.3512 27.1032 31.4316H26.9895V30.2546H27.1032C27.1569 30.5009 27.2284 30.6858 27.319 30.8077C27.4096 30.9304 27.5486 31.0324 27.7349 31.1127C27.9214 31.194 28.1257 31.2346 28.3478 31.2346C28.6048 31.2346 28.809 31.1784 28.9575 31.0669C29.107 30.9546 29.1818 30.8223 29.1818 30.6702C29.1818 30.5855 29.1534 30.4999 29.0975 30.4136C29.0407 30.3272 28.9534 30.2468 28.8343 30.1716C28.7543 30.1206 28.5342 30.0134 28.1751 29.8492C27.816 29.686 27.5602 29.5546 27.4086 29.4569C27.2569 29.3592 27.141 29.2503 27.0632 29.1328C26.9841 29.0145 26.9453 28.8839 26.9453 28.7422C26.9453 28.4959 27.0611 28.2832 27.2916 28.1053C27.5222 27.9273 27.8171 27.8382 28.173 27.8382C28.3963 27.8382 28.6321 27.8832 28.8817 27.9722C28.9976 28.0146 29.0786 28.0353 29.126 28.0353C29.1797 28.0353 29.2239 28.0223 29.2576 27.9964C29.2914 27.9696 29.3187 27.9177 29.3397 27.8382H29.4535Z" fill="black"/>
<path d="M33.5597 37.4012C33.7242 37.4012 33.8845 37.4433 34.0414 37.5275C34.1978 37.6122 34.3201 37.7329 34.4074 37.8902C34.4947 38.0472 34.5385 38.2112 34.5385 38.3819C34.5385 38.5509 34.4955 38.7131 34.4092 38.8688C34.3233 39.0249 34.2022 39.1459 34.0471 39.2319C33.8916 39.3184 33.7295 39.3613 33.5597 39.3613C33.3901 39.3613 33.2274 39.3184 33.0723 39.2319C32.9168 39.1459 32.7958 39.0249 32.7093 38.8688C32.6225 38.7131 32.5796 38.5509 32.5796 38.3819C32.5796 38.2112 32.6234 38.0472 32.7112 37.8902C32.7989 37.7329 32.9213 37.6122 33.078 37.5275C33.2344 37.4433 33.3954 37.4012 33.5597 37.4012ZM33.5597 37.5634C33.4219 37.5634 33.2881 37.5989 33.1579 37.6694C33.0276 37.7399 32.9257 37.841 32.8521 37.9719C32.7785 38.103 32.7417 38.2396 32.7417 38.3819C32.7417 38.5229 32.7781 38.6582 32.8503 38.7876C32.9226 38.9171 33.0236 39.0182 33.1534 39.0905C33.2832 39.1628 33.4184 39.1991 33.5597 39.1991C33.7006 39.1991 33.8362 39.1628 33.966 39.0905C34.0959 39.0182 34.1965 38.9171 34.2683 38.7876C34.34 38.6582 34.3759 38.5229 34.3759 38.3819C34.3759 38.2396 34.3396 38.103 34.2664 37.9719C34.1934 37.841 34.0915 37.7399 33.9608 37.6694C33.83 37.5989 33.6962 37.5634 33.5597 37.5634ZM33.1299 38.9233V37.869H33.492C33.616 37.869 33.7055 37.8782 33.7608 37.8977C33.8164 37.9172 33.8602 37.9514 33.8935 37.9997C33.9262 38.0485 33.9426 38.1 33.9426 38.1545C33.9426 38.2316 33.9152 38.2985 33.8602 38.3557C33.8052 38.413 33.7321 38.4449 33.6412 38.452C33.6784 38.4675 33.7086 38.4861 33.7308 38.5078C33.7733 38.5496 33.8252 38.6192 33.8867 38.7171L34.0153 38.9233H33.8074L33.7139 38.7571C33.6403 38.6267 33.5814 38.5446 33.5362 38.5119C33.5052 38.4874 33.4596 38.4754 33.3998 38.4754H33.3001V38.9233H33.1299ZM33.3001 38.3301H33.5065C33.605 38.3301 33.6723 38.315 33.7082 38.2858C33.7441 38.2565 33.7623 38.2175 33.7623 38.1687C33.7623 38.1376 33.7534 38.1097 33.7361 38.0849C33.7188 38.0604 33.6949 38.0418 33.6644 38.0299C33.6333 38.0175 33.5766 38.0117 33.4933 38.0117H33.3001V38.3301Z" fill="white"/>
</svg>
