<svg width="89" height="84" viewBox="0 0 89 84" fill="none" xmlns="http://www.w3.org/2000/svg">
<path fill-rule="evenodd" clip-rule="evenodd" d="M10.0107 0.197197H69.5932C74.843 0.197197 79.1384 4.49524 79.1384 9.74862V65.4779C79.1384 70.7313 74.843 75.0293 69.5932 75.0293H9.5455C4.29538 75.0293 0 70.7313 0 65.4779V10.2139C0 4.7045 4.50478 0.197197 10.0107 0.197197Z" fill="#FF0000"/>
<path d="M84.811 0.000153065C85.4083 0.000153065 85.9909 0.153137 86.561 0.45938C87.1292 0.766988 87.5733 1.20518 87.8906 1.77696C88.2078 2.3471 88.367 2.94319 88.367 3.56333C88.367 4.17718 88.2108 4.76671 87.8971 5.33194C87.5848 5.89907 87.1453 6.3389 86.5818 6.65143C86.0169 6.96532 85.4277 7.12158 84.811 7.12158C84.1945 7.12158 83.6037 6.96532 83.0402 6.65143C82.475 6.3389 82.0357 5.89907 81.7218 5.33194C81.4062 4.76671 81.25 4.17718 81.25 3.56333C81.25 2.94319 81.4094 2.3471 81.7281 1.77696C82.0469 1.20518 82.4911 0.766988 83.0612 0.45938C83.6293 0.153137 84.2136 0.000153065 84.811 0.000153065ZM84.811 0.58969C84.3102 0.58969 83.824 0.718634 83.3509 0.974609C82.8775 1.23086 82.5072 1.59802 82.24 2.07337C81.9727 2.55008 81.8392 3.04618 81.8392 3.56333C81.8392 4.07555 81.971 4.56701 82.2337 5.03744C82.4961 5.50759 82.863 5.87476 83.3348 6.13756C83.8065 6.4001 84.2974 6.53205 84.811 6.53205C85.3229 6.53205 85.8157 6.4001 86.2872 6.13756C86.7589 5.87476 87.1242 5.50759 87.3852 5.03744C87.646 4.56701 87.7762 4.07555 87.7762 3.56333C87.7762 3.04618 87.6443 2.55008 87.3787 2.07337C87.113 1.59802 86.7428 1.23086 86.2678 0.974609C85.793 0.718634 85.3068 0.58969 84.811 0.58969ZM83.2493 5.53027V1.69965H84.5647C85.0155 1.69965 85.3406 1.73325 85.5418 1.80428C85.743 1.87503 85.9025 1.99933 86.0232 2.17472C86.1422 2.35202 86.202 2.53888 86.202 2.73694C86.202 3.01723 86.1021 3.26036 85.9025 3.46826C85.7029 3.67615 85.4373 3.79198 85.1072 3.81794C85.2423 3.87421 85.3518 3.94196 85.4323 4.02091C85.5869 4.17226 85.7753 4.42523 85.9991 4.78119L86.466 5.53027H85.7108L85.3712 4.92598C85.1039 4.45255 84.8899 4.1545 84.7258 4.03539C84.613 3.94661 84.447 3.90317 84.2297 3.90317H83.8677V5.53027H83.2493ZM83.8677 3.37483H84.6177C84.9753 3.37483 85.2199 3.32019 85.3502 3.21365C85.4807 3.10738 85.5467 2.96559 85.5467 2.78857C85.5467 2.67574 85.5145 2.57439 85.4517 2.48397C85.3889 2.39545 85.3021 2.3277 85.191 2.28427C85.0782 2.23919 84.8721 2.21843 84.5696 2.21843H83.8677V3.37483Z" fill="white"/>
<path d="M9.06494 79.1348H12.6756V79.5705C12.5563 79.55 12.4528 79.5391 12.3657 79.5391H11.2936V83.7019C11.2936 83.7858 11.3048 83.8625 11.3261 83.9333H10.4295C10.4508 83.865 10.462 83.7882 10.462 83.7019V79.5391H9.38246C9.28035 79.5391 9.17442 79.55 9.06494 79.5705V79.1348ZM12.998 83.9333C13.0169 83.8601 13.0267 83.7833 13.0267 83.7019V78.9897C13.0267 78.9034 13.0169 78.8263 12.998 78.758H13.8174C13.7988 78.8263 13.7887 78.9034 13.7887 78.9897V80.6706C13.9519 80.4668 14.1237 80.3204 14.3044 80.2316C14.486 80.1428 14.7038 80.0983 14.9591 80.0983C15.3525 80.0983 15.6578 80.1931 15.8732 80.3816C16.0886 80.5701 16.1956 80.8364 16.1956 81.1807V83.7019C16.1956 83.7808 16.2054 83.8579 16.2243 83.9333H15.4049C15.4235 83.8674 15.4336 83.7907 15.4336 83.7019V81.423C15.4336 81.1471 15.3738 80.9443 15.2531 80.816C15.1322 80.6876 14.9455 80.6228 14.6891 80.6228C14.3901 80.6228 14.1674 80.702 14.0191 80.8616C13.8659 81.0296 13.7887 81.2394 13.7887 81.4902V83.7019C13.7887 83.7833 13.7988 83.8601 13.8174 83.9333H12.998ZM20.293 83.6839C20.0416 83.8038 19.8213 83.8866 19.6282 83.9322C19.4363 83.9778 19.2124 84.0005 18.9572 84.0005C18.2935 84.0005 17.7906 83.8134 17.4468 83.4377C17.1405 83.1077 16.9874 82.6542 16.9874 82.077C16.9874 81.4399 17.1629 80.9443 17.5129 80.5903C17.8364 80.2627 18.2648 80.0983 18.8002 80.0983C19.3181 80.0983 19.7227 80.2556 20.0116 80.5712C20.3007 80.8867 20.456 81.338 20.4787 81.9259H17.7829C17.7829 82.3362 17.8302 82.6638 17.9249 82.911C18.1105 83.4006 18.4876 83.6453 19.0593 83.6453C19.4513 83.6453 19.8248 83.5003 20.1797 83.2085L20.293 83.6839ZM17.8053 81.5959H19.6657C19.6457 81.3823 19.6146 81.2096 19.5709 81.0752C19.5048 80.8758 19.3929 80.7162 19.2348 80.5939C19.1041 80.493 18.946 80.4428 18.7603 80.4428C18.4977 80.4428 18.2823 80.5436 18.1155 80.7452C17.9473 80.9468 17.8441 81.2298 17.8053 81.5959ZM23.2837 79.1348H25.8661V79.5249C25.7902 79.5019 25.713 79.4899 25.6319 79.4899H24.1478V81.3175H25.592C25.6966 81.3175 25.7875 81.3066 25.8661 81.2864V81.6762C25.8001 81.6617 25.7116 81.6546 25.5997 81.6546H24.1478V83.547H25.5885C25.6693 83.547 25.7613 83.535 25.8661 83.512V83.9333H23.2875C23.3061 83.8625 23.3162 83.7869 23.3162 83.7054V79.3664C23.3162 79.2703 23.305 79.1935 23.2837 79.1348ZM26.8321 80.534H26.2557V80.186H26.8321V79.4612L27.6091 79.3809C27.5993 79.5189 27.5941 79.6098 27.5941 79.6555V80.186H28.2217V80.534H27.5941V83.2446C27.5941 83.4667 27.6902 83.5781 27.8832 83.5781C27.9752 83.5781 28.0923 83.541 28.2329 83.4653V83.853C28.0213 83.9513 27.8021 84.0005 27.5769 84.0005C27.3216 84.0005 27.1335 83.9407 27.0128 83.8218C26.8921 83.7019 26.8321 83.5159 26.8321 83.2651V80.534ZM28.8505 83.9333C28.8693 83.8601 28.8792 83.7833 28.8792 83.7019V78.9897C28.8792 78.9034 28.8693 78.8263 28.8505 78.758H29.6698C29.651 78.8263 29.6412 78.9034 29.6412 78.9897V80.6706C29.8041 80.4668 29.9761 80.3204 30.1566 80.2316C30.3384 80.1428 30.5563 80.0983 30.8116 80.0983C31.205 80.0983 31.51 80.1931 31.7254 80.3816C31.9408 80.5701 32.0478 80.8364 32.0478 81.1807V83.7019C32.0478 83.7808 32.0579 83.8579 32.0765 83.9333H31.2571C31.276 83.8674 31.2858 83.7907 31.2858 83.7019V81.423C31.2858 81.1471 31.226 80.9443 31.1053 80.816C30.9844 80.6876 30.7977 80.6228 30.5413 80.6228C30.2426 80.6228 30.0196 80.702 29.8716 80.8616C29.7184 81.0296 29.6412 81.2394 29.6412 81.4902V83.7019C29.6412 83.7833 29.651 83.8601 29.6698 83.9333H28.8505ZM33.4462 79.1733C33.5942 79.1733 33.7102 79.2031 33.7948 79.2632C33.8781 79.3219 33.9204 79.4036 33.9204 79.5068C33.9204 79.6147 33.8781 79.7 33.7948 79.7612C33.7102 79.8235 33.5966 79.8549 33.4536 79.8549C33.1298 79.8549 32.9679 79.7407 32.9679 79.5139C32.9679 79.4107 33.0116 79.3279 33.0976 79.2667C33.1833 79.2044 33.3004 79.1733 33.4462 79.1733ZM33.0227 80.186H33.8421C33.8235 80.2592 33.8134 80.336 33.8134 80.4176V83.7019C33.8134 83.7808 33.8235 83.8579 33.8421 83.9333H33.0227C33.0413 83.8625 33.0514 83.7858 33.0514 83.7019V80.4176C33.0514 80.331 33.0413 80.2543 33.0227 80.186ZM37.5275 83.733C37.2411 83.8505 37.0345 83.9237 36.9111 83.9549C36.7866 83.9849 36.6247 84.0005 36.4256 84.0005C35.8766 84.0005 35.4507 83.836 35.1493 83.5085C34.8282 83.1593 34.6674 82.6889 34.6674 82.0986C34.6674 81.4243 34.8705 80.9047 35.2762 80.5411C35.6101 80.2458 36.0459 80.0983 36.5862 80.0983C36.8824 80.0983 37.1964 80.1524 37.5275 80.2592V80.8075C37.3432 80.6671 37.1876 80.5723 37.0618 80.522C36.9373 80.4715 36.7942 80.4463 36.6334 80.4463C36.2787 80.4463 36.0022 80.5867 35.8056 80.8687C35.5937 81.1662 35.4881 81.5598 35.4881 82.0494C35.4881 82.4767 35.5678 82.8343 35.7283 83.1222C35.914 83.4522 36.2001 83.6178 36.59 83.6178C36.7582 83.6178 36.9124 83.5877 37.053 83.5279C37.1936 83.4678 37.352 83.3645 37.5275 83.2159V83.733ZM40.1657 83.4306C40.009 83.6093 39.867 83.7341 39.7387 83.8073C39.5096 83.9357 39.2494 84.0005 38.9581 84.0005C38.6581 84.0005 38.4176 83.9166 38.236 83.7472C38.0119 83.5434 37.8996 83.2711 37.8996 82.9277C37.8996 82.5209 38.0591 82.2163 38.378 82.0147C38.5186 81.9245 38.6518 81.8573 38.7774 81.812C38.9019 81.7664 39.1858 81.6787 39.6292 81.5503C39.8135 81.4962 39.9454 81.4303 40.0226 81.3511C40.101 81.273 40.1398 81.1662 40.1398 81.0296C40.1398 80.8698 40.0737 80.7414 39.9429 80.6419C39.811 80.5422 39.6404 80.492 39.4285 80.492C39.2456 80.492 39.0837 80.5195 38.9418 80.5758C38.7987 80.6324 38.6245 80.7367 38.4176 80.8892L38.2944 80.4103C38.5584 80.2914 38.7875 80.21 38.9792 80.1655C39.1722 80.1212 39.3925 80.0983 39.6429 80.0983C40.045 80.0983 40.3549 80.174 40.573 80.325C40.792 80.4764 40.9015 80.69 40.9015 80.9659V83.1919C40.9015 83.4077 40.9776 83.5159 41.1308 83.5159C41.1917 83.5159 41.2763 83.4773 41.3861 83.3995V83.8134C41.1843 83.9382 40.9927 84.0005 40.8106 84.0005C40.6203 84.0005 40.4783 83.9587 40.3825 83.8735C40.2866 83.7893 40.2143 83.6418 40.1657 83.4306ZM40.1398 81.6978C40.0426 81.7494 39.9716 81.7844 39.9268 81.8035C39.882 81.8216 39.689 81.8934 39.3477 82.0172C39.0826 82.1141 38.8994 82.233 38.7973 82.3758C38.6928 82.5223 38.6406 82.6807 38.6406 82.8547C38.6406 83.0539 38.698 83.2134 38.8137 83.3345C38.9295 83.4558 39.0826 83.5159 39.2757 83.5159C39.5743 83.5159 39.8086 83.397 39.9789 83.1607C40.086 83.0105 40.1398 82.8485 40.1398 82.6747V81.6978ZM42.7069 78.758C42.6884 78.8263 42.6783 78.9034 42.6783 78.9897V83.7019C42.6783 83.7808 42.6884 83.8579 42.7069 83.9333H41.8876C41.9064 83.8601 41.9163 83.7833 41.9163 83.7019V78.9897C41.9163 78.9056 41.9064 78.8288 41.8876 78.758H42.7069ZM45.7311 79.1348H47.4121C47.823 79.1348 48.1566 79.2211 48.4119 79.3951C48.7046 79.5967 48.8501 79.9051 48.8501 80.319C48.8501 80.7512 48.6735 81.0596 48.321 81.2479C48.209 81.3066 48.051 81.3642 47.8468 81.423C48.0682 81.4626 48.25 81.5241 48.3944 81.6068C48.7644 81.8142 48.9487 82.1537 48.9487 82.6217C48.9487 83.0861 48.7644 83.4402 48.3969 83.6839C48.1493 83.8505 47.858 83.9333 47.5216 83.9333H45.7311C45.7524 83.8699 45.7636 83.7918 45.7636 83.697V79.364C45.7636 79.2692 45.7524 79.1935 45.7311 79.1348ZM46.5955 81.2899H46.9526C47.2715 81.2899 47.5142 81.2347 47.6799 81.1244C47.9101 80.9719 48.0259 80.7067 48.0259 80.3264C48.0259 79.7707 47.7258 79.4935 47.1246 79.4935H46.5955V81.2899ZM46.5955 83.5637H47.1869C47.7968 83.5637 48.102 83.2566 48.102 82.6436C48.102 82.2821 47.9923 82.0147 47.7733 81.8418C47.6737 81.7615 47.5639 81.7063 47.4432 81.6751C47.3226 81.6426 47.1631 81.627 46.9638 81.627H46.5955V83.5637ZM52.1907 83.9333V83.4197C52.0526 83.6033 51.918 83.7341 51.7897 83.8144C51.5857 83.9382 51.328 84.0005 51.0192 84.0005C50.6031 84.0005 50.2832 83.8866 50.0604 83.6598C49.875 83.4713 49.7827 83.2014 49.7827 82.8474V80.4138C49.7827 80.3349 49.7729 80.2592 49.7541 80.186H50.5734C50.5548 80.2518 50.5447 80.3275 50.5447 80.4138V82.7657C50.5447 82.9673 50.5947 83.1282 50.6941 83.2481C50.8262 83.4006 51.0228 83.4762 51.2857 83.4762C51.5521 83.4762 51.7662 83.403 51.9305 83.2566C52.0949 83.1102 52.1771 82.9195 52.1771 82.6854V80.4138C52.1771 80.3324 52.167 80.2567 52.1484 80.186H52.9677C52.9492 80.2472 52.9391 80.3228 52.9391 80.4138V83.7019C52.9391 83.7762 52.9492 83.8541 52.9677 83.9333H52.1907ZM54.3396 79.1733C54.4879 79.1733 54.6037 79.2031 54.6883 79.2632C54.7718 79.3219 54.8142 79.4036 54.8142 79.5068C54.8142 79.6147 54.7718 79.7 54.6883 79.7612C54.6037 79.8235 54.4904 79.8549 54.3473 79.8549C54.0235 79.8549 53.8616 79.7407 53.8616 79.5139C53.8616 79.4107 53.9053 79.3279 53.9913 79.2667C54.077 79.2044 54.1941 79.1733 54.3396 79.1733ZM53.9165 80.186H54.7355C54.717 80.2592 54.7071 80.336 54.7071 80.4176V83.7019C54.7071 83.7808 54.717 83.8579 54.7355 83.9333H53.9165C53.935 83.8625 53.9451 83.7858 53.9451 83.7019V80.4176C53.9451 80.331 53.935 80.2543 53.9165 80.186ZM56.5459 78.758C56.5273 78.8263 56.5175 78.9034 56.5175 78.9897V83.7019C56.5175 83.7808 56.5273 83.8579 56.5459 83.9333H55.7269C55.7454 83.8601 55.7552 83.7833 55.7552 83.7019V78.9897C55.7552 78.9056 55.7454 78.8288 55.7269 78.758H56.5459ZM59.8543 83.3886C59.7235 83.5637 59.6051 83.691 59.5005 83.7688C59.2938 83.9237 59.0336 84.0005 58.7199 84.0005C58.2681 84.0005 57.9205 83.8243 57.6778 83.4702C57.4299 83.1066 57.3054 82.6337 57.3054 82.0529C57.3054 81.453 57.445 80.9695 57.7251 80.601C57.9803 80.2663 58.3451 80.0983 58.8196 80.0983C59.0497 80.0983 59.2466 80.1368 59.406 80.2122C59.5666 80.2892 59.7134 80.4127 59.8442 80.5832V78.9897C59.8442 78.9056 59.8344 78.8288 59.8156 78.758H60.6349C60.6163 78.8313 60.6062 78.908 60.6062 78.9897V83.7019C60.6062 83.7808 60.6163 83.8579 60.6349 83.9333H59.8543V83.3886ZM59.0126 80.4955C58.8059 80.4955 58.6277 80.5676 58.4797 80.7102C58.2318 80.9539 58.1087 81.4003 58.1087 82.0494C58.1087 83.0381 58.3961 83.5325 58.9714 83.5325C59.2703 83.5325 59.4969 83.4019 59.6512 83.1402C59.8057 82.8799 59.883 82.4958 59.883 81.9896C59.883 81.0055 59.5928 80.5075 59.0126 80.4955ZM64.6952 83.6839C64.4435 83.8038 64.2231 83.8866 64.0301 83.9322C63.8385 83.9778 63.6143 84.0005 63.359 84.0005C62.6956 84.0005 62.1924 83.8134 61.849 83.4377C61.5427 83.1077 61.3895 82.6542 61.3895 82.077C61.3895 81.4399 61.565 80.9443 61.9148 80.5903C62.2386 80.2627 62.6667 80.0983 63.2021 80.0983C63.7202 80.0983 64.1249 80.2556 64.4137 80.5712C64.7026 80.8867 64.8582 81.338 64.8806 81.9259H62.1851C62.1851 82.3362 62.2323 82.6638 62.327 82.911C62.5124 83.4006 62.8897 83.6453 63.4612 83.6453C63.8535 83.6453 64.227 83.5003 64.5819 83.2085L64.6952 83.6839ZM62.2075 81.5959H64.0675C64.0476 81.3823 64.0165 81.2096 63.9731 81.0752C63.907 80.8758 63.7948 80.7162 63.6367 80.5939C63.5059 80.493 63.3479 80.4428 63.1625 80.4428C62.8996 80.4428 62.6844 80.5436 62.5176 80.7452C62.3494 80.9468 62.246 81.2298 62.2075 81.5959ZM65.5915 80.186H66.3721V80.6635C66.443 80.469 66.549 80.331 66.6909 80.2472C66.8329 80.1644 67.0494 80.1139 67.3421 80.0983V80.6744C67.2837 80.672 67.2424 80.6706 67.2214 80.6706C66.6623 80.6706 66.3822 80.9648 66.3822 81.5538V83.7019C66.3822 83.7858 66.392 83.8625 66.4108 83.9333H65.5915C65.6103 83.8579 65.6202 83.7808 65.6202 83.7019V80.4176C65.6202 80.3335 65.6103 80.2567 65.5915 80.186Z" fill="white"/>
<path d="M34.8418 9.84578V22.0236H42.0705C43.9502 22.0236 45.2004 21.76 45.8297 21.2325C46.6744 20.5342 47.138 19.3087 47.2373 17.548H48.1315V28.2755H47.2373C47.0137 26.7784 46.7819 25.8165 46.5583 25.3901C46.2687 24.8626 45.7882 24.4438 45.1258 24.1411C44.4635 23.8387 43.4449 23.6835 42.0705 23.6835H34.8418V33.8447C34.8418 35.2098 34.9082 36.0397 35.0324 36.3345C35.1648 36.6293 35.3884 36.862 35.7111 37.0404C36.0341 37.2109 36.6552 37.2964 37.5578 37.2964H43.1385C44.9934 37.2964 46.3514 37.18 47.1876 36.9317C48.0321 36.6913 48.8353 36.2181 49.6137 35.5046C50.6157 34.5659 51.6425 33.1464 52.6941 31.254H53.6628L50.8311 38.9795H25.4771V38.1419H26.6445C27.4144 38.1419 28.1515 37.9635 28.8469 37.6144C29.3686 37.374 29.7165 37.0093 29.9068 36.5285C30.0889 36.0397 30.18 35.047 30.18 33.5499V13.5302C30.18 11.5753 29.9731 10.3733 29.5507 9.91544C28.9711 9.31061 28.0025 9.00819 26.6445 9.00819H25.4771V8.16268H50.8311L51.1953 14.9109H50.243C49.9036 13.2896 49.531 12.1804 49.1168 11.5753C48.7029 10.9705 48.0984 10.505 47.287 10.187C46.6411 9.96216 45.4985 9.84578 43.8672 9.84578H34.8418Z" fill="white"/>
<path d="M17.4224 46.3521V50.0836H19.6538C20.234 50.0836 20.62 50.0027 20.8141 49.8412C21.0749 49.6273 21.2182 49.2517 21.2488 48.7122H21.5248V51.9994H21.2488C21.1797 51.5407 21.1082 51.246 21.0391 51.1151C20.9498 50.9534 20.8016 50.8253 20.5971 50.7327C20.3926 50.6398 20.0781 50.5922 19.6538 50.5922H17.4224V53.706C17.4224 54.1243 17.4429 54.3786 17.4811 54.4688C17.5221 54.5592 17.5912 54.6305 17.6908 54.6851C17.7905 54.7373 17.9821 54.7635 18.2609 54.7635H19.9836C20.5561 54.7635 20.9752 54.728 21.2335 54.6518C21.4942 54.5783 21.7421 54.4332 21.9824 54.2147C22.2917 53.927 22.6084 53.4918 22.933 52.9121H23.2322L22.358 55.2793H14.5317V55.0225H14.8921C15.1296 55.0225 15.3573 54.9679 15.5719 54.861C15.733 54.7873 15.8403 54.6756 15.899 54.5283C15.9552 54.3786 15.9834 54.0743 15.9834 53.6156V47.4812C15.9834 46.8821 15.9195 46.5138 15.7893 46.3734C15.6104 46.1882 15.3112 46.0953 14.8921 46.0953H14.5317V45.8363H22.358L22.4705 47.9041H22.1765C22.0717 47.4074 21.9567 47.0676 21.8289 46.8821C21.7012 46.6969 21.5147 46.5543 21.2641 46.4567C21.0648 46.3876 20.712 46.3521 20.2086 46.3521H17.4224ZM32.3748 52.6674L32.6229 52.7171L31.7539 55.2793H23.8916V55.0225H24.2749C24.7044 55.0225 25.0112 54.8919 25.1952 54.6329C25.3001 54.4832 25.3511 54.1385 25.3511 53.6014V47.5071C25.3511 46.9179 25.2821 46.5493 25.1415 46.4021C24.9473 46.1978 24.6585 46.0953 24.2749 46.0953H23.8916V45.8363H28.4897V46.0953C27.9505 46.0907 27.5721 46.1357 27.3548 46.2333C27.1378 46.3308 26.9895 46.4543 26.9103 46.604C26.8309 46.7515 26.7899 47.108 26.7899 47.6689V53.6014C26.7899 53.9863 26.8309 54.2502 26.9103 54.395C26.969 54.4925 27.061 54.5638 27.1864 54.6114C27.3114 54.6567 27.6999 54.6805 28.3543 54.6805H29.0956C29.875 54.6805 30.4222 54.628 30.7364 54.5212C31.0509 54.4141 31.337 54.224 31.5978 53.9532C31.856 53.6822 32.1168 53.252 32.3748 52.6674ZM37.6861 55.0225V55.2793H33.3333V55.0225H33.6937C34.1128 55.0225 34.4169 54.9086 34.6061 54.6805C34.7263 54.533 34.7877 54.174 34.7877 53.6085V47.5071C34.7877 47.0293 34.7544 46.7133 34.6905 46.5614C34.6395 46.4447 34.5373 46.345 34.3839 46.2617C34.1641 46.1499 33.934 46.0953 33.6937 46.0953H33.3333V45.8363H37.6861V46.0953H37.318C36.9041 46.0953 36.6024 46.2095 36.4132 46.4354C36.2879 46.5851 36.224 46.9416 36.224 47.5071V53.6085C36.224 54.0863 36.2574 54.4024 36.3212 54.5545C36.3723 54.6709 36.4771 54.7706 36.6358 54.8539C36.8503 54.9657 37.0778 55.0225 37.318 55.0225H37.6861ZM44.319 50.0505L46.499 53.0714C47.1024 53.9079 47.5496 54.4354 47.8437 54.6567C48.135 54.8777 48.5054 54.9987 48.9554 55.0225V55.2793H44.5975V55.0225C44.8863 55.0179 45.1009 54.9894 45.2415 54.937C45.3464 54.8966 45.4307 54.8324 45.4998 54.7469C45.5661 54.6613 45.5995 54.5734 45.5995 54.4854C45.5995 54.3786 45.5765 54.2715 45.5331 54.1647C45.4971 54.0863 45.3592 53.8817 45.1214 53.5514L43.3987 51.1296L41.2721 53.6631C41.0472 53.9341 40.9117 54.1122 40.8683 54.2027C40.8225 54.2931 40.7993 54.3879 40.7993 54.4854C40.7993 54.6351 40.8683 54.7564 41.0013 54.8539C41.1367 54.9515 41.3947 55.0083 41.7731 55.0225V55.2793H38.1717V55.0225C38.4273 54.9987 38.6446 54.949 38.8314 54.8753C39.1404 54.754 39.4345 54.5925 39.7129 54.3879C39.9941 54.1835 40.3136 53.8699 40.6715 53.4468L43.0691 50.6351L41.0704 47.9112C40.5257 47.1744 40.0632 46.6895 39.6851 46.4614C39.3039 46.2308 38.8671 46.1095 38.3738 46.0953V45.8363H43.0691V46.0953C42.6703 46.1095 42.3967 46.1691 42.2484 46.2762C42.1029 46.383 42.0287 46.5018 42.0287 46.6302C42.0287 46.8037 42.1491 47.0531 42.3866 47.3837L43.9458 49.5489L45.7502 47.4241C45.9598 47.1744 46.0876 47.0034 46.1362 46.9108C46.1823 46.8157 46.2077 46.7206 46.2077 46.6231C46.2077 46.5256 46.1772 46.4401 46.1157 46.3663C46.0417 46.2691 45.947 46.1999 45.8321 46.162C45.7171 46.1215 45.4793 46.1002 45.1214 46.0953V45.8363H48.7228V46.0953C48.4391 46.1095 48.2065 46.1499 48.0249 46.2191C47.7566 46.3259 47.5087 46.4709 47.2837 46.6515C47.059 46.8324 46.742 47.1673 46.333 47.6547L44.319 50.0505ZM53.8681 55.0225V55.2793H49.5151V55.0225H49.8754C50.2948 55.0225 50.5989 54.9086 50.7881 54.6805C50.9083 54.533 50.9694 54.174 50.9694 53.6085V47.5071C50.9694 47.0293 50.9364 46.7133 50.8725 46.5614C50.8215 46.4447 50.7191 46.345 50.5656 46.2617C50.3459 46.1499 50.116 46.0953 49.8754 46.0953H49.5151V45.8363H53.8681V46.0953H53.4998C53.0859 46.0953 52.7842 46.2095 52.595 46.4354C52.4699 46.5851 52.406 46.9416 52.406 47.5071V53.6085C52.406 54.0863 52.4391 54.4024 52.503 54.5545C52.5543 54.6709 52.6591 54.7706 52.8175 54.8539C53.0321 54.9657 53.2598 55.0225 53.4998 55.0225H53.8681ZM64.6055 55.2793H61.8937L58.4561 50.8657C58.203 50.8728 57.9958 50.8774 57.835 50.8774C57.7708 50.8774 57.702 50.8774 57.6253 50.8753C57.5511 50.8728 57.4743 50.8703 57.3927 50.8657V53.6085C57.3927 54.2027 57.4642 54.5712 57.6024 54.716C57.794 54.9206 58.0777 55.0225 58.4561 55.0225H58.8547V55.2793H54.5045V55.0225H54.8853C55.3148 55.0225 55.6214 54.8919 55.8054 54.6329C55.9102 54.4879 55.964 54.1456 55.964 53.6085V47.5071C55.964 46.913 55.8925 46.5447 55.7543 46.4021C55.5599 46.1978 55.2686 46.0953 54.8853 46.0953H54.5045V45.8363H58.203C59.2814 45.8363 60.0765 45.9101 60.5876 46.0573C61.0989 46.2024 61.5333 46.4709 61.8912 46.8632C62.2464 47.2577 62.4255 47.7235 62.4255 48.2677C62.4255 48.8477 62.2235 49.3517 61.8145 49.7795C61.408 50.2049 60.7795 50.5067 59.9258 50.6827L62.0214 53.3921C62.4995 54.015 62.9137 54.4283 63.256 54.6329C63.6011 54.8348 64.051 54.9657 64.6055 55.0225V55.2793ZM57.3927 50.4259C57.4899 50.4259 57.5715 50.4259 57.6406 50.4283C57.7097 50.4308 57.7684 50.433 57.8118 50.433C58.7804 50.433 59.5116 50.2382 60.0025 49.8483C60.4955 49.4585 60.741 48.9619 60.741 48.3581C60.741 47.7686 60.5417 47.2886 60.1455 46.9201C59.7494 46.5518 59.2227 46.3663 58.5683 46.3663C58.2797 46.3663 57.8885 46.4114 57.3927 46.4994V50.4259Z" fill="white"/>
<path d="M19.4295 61.9793H23.5027V59.8996C23.5027 59.533 23.474 59.2915 23.4189 59.1754C23.3746 59.0882 23.2837 59.012 23.1445 58.9486C22.9588 58.8631 22.762 58.8216 22.5542 58.8216H22.2424V58.6254H26.0103V58.8216H25.6986C25.4908 58.8216 25.2939 58.8615 25.1083 58.9431C24.9688 58.9994 24.8738 59.0847 24.8252 59.1989C24.7744 59.3133 24.7501 59.5474 24.7501 59.8996V64.5708C24.7501 64.9358 24.7788 65.177 24.8339 65.2934C24.8784 65.3822 24.9666 65.4584 25.1017 65.5218C25.2918 65.6073 25.4908 65.6488 25.6986 65.6488H26.0103V65.8449H22.2424V65.6488H22.5542C22.9146 65.6488 23.1756 65.5619 23.3413 65.3895C23.4497 65.2751 23.5027 65.003 23.5027 64.5708V62.3714H19.4295V64.5708C19.4295 64.9358 19.4582 65.177 19.5136 65.2934C19.5557 65.3822 19.646 65.4584 19.7856 65.5218C19.9712 65.6073 20.1659 65.6488 20.3739 65.6488H20.6901V65.8449H16.9219V65.6488H17.2337C17.5987 65.6488 17.8616 65.5619 18.0273 65.3895C18.1313 65.2751 18.1824 65.003 18.1824 64.5708V59.8996C18.1824 59.533 18.1535 59.2915 18.0983 59.1754C18.0541 59.0882 17.9656 59.012 17.8307 58.9486C17.6405 58.8631 17.4414 58.8216 17.2337 58.8216H16.9219V58.6254H20.6901V58.8216H20.3739C20.1659 58.8216 19.9712 58.8615 19.7856 58.9431C19.6507 58.9994 19.5579 59.0847 19.5068 59.1989C19.456 59.3133 19.4295 59.5474 19.4295 59.8996V61.9793ZM31.1253 58.4621C32.2641 58.4621 33.2527 58.8178 34.0862 59.5291C34.9222 60.2408 35.3402 61.1281 35.3402 62.1935C35.3402 63.2895 34.92 64.199 34.0775 64.9229C33.2371 65.6471 32.2177 66.0083 31.0213 66.0083C29.814 66.0083 28.7989 65.6543 27.9763 64.9483C27.1537 64.2424 26.7423 63.3294 26.7423 62.208C26.7423 61.0628 27.2179 60.1282 28.1664 59.404C28.9914 58.776 29.9776 58.4621 31.1253 58.4621ZM31.0014 58.8432C30.2186 58.8432 29.5882 59.0827 29.1151 59.5619C28.5248 60.1591 28.2283 61.0319 28.2283 62.1826C28.2283 63.3603 28.5336 64.2678 29.1462 64.903C29.6172 65.3857 30.2364 65.6272 31.0079 65.6272C31.833 65.6272 32.5117 65.3622 33.0493 64.8341C33.5866 64.3042 33.8541 63.4712 33.8541 62.3315C33.8541 61.0953 33.5576 60.1736 32.9674 59.5674C32.4942 59.0847 31.8395 58.8432 31.0014 58.8432ZM41.2865 65.8449L37.8896 59.7706V64.5926C37.8896 65.0374 37.9494 65.315 38.0665 65.4256C38.2281 65.5745 38.4845 65.6488 38.8361 65.6488H39.1501V65.8449H36.0587V65.6488H36.3749C36.7508 65.6488 37.0162 65.5565 37.1754 65.3712C37.2704 65.257 37.3193 64.9972 37.3193 64.5926V59.8777C37.3193 59.5584 37.275 59.3259 37.1888 59.1844C37.1268 59.0811 37.014 58.9956 36.8502 58.9248C36.6845 58.856 36.4213 58.8216 36.0587 58.8216V58.6254H38.5795L41.7506 64.2697L44.893 58.6254H47.3895V58.8216H47.0824C46.6996 58.8216 46.432 58.9142 46.2729 59.0991C46.1778 59.2133 46.1292 59.4731 46.1292 59.8777V64.5926C46.1292 65.0374 46.191 65.315 46.3127 65.4256C46.4741 65.5745 46.7307 65.6488 47.0824 65.6488H47.3895V65.8449H43.6216V65.6488H43.9377C44.3181 65.6488 44.5834 65.5565 44.7382 65.3712C44.8332 65.257 44.8818 64.9972 44.8818 64.5926V59.7706L41.4986 65.8449H41.2865ZM50.4304 59.0175V61.8703H52.3674C52.8692 61.8703 53.2031 61.8086 53.3713 61.6854C53.5968 61.522 53.7208 61.2352 53.7472 60.8251H53.9861V63.3404H53.7472C53.6875 62.9882 53.6255 62.7615 53.566 62.6618C53.4884 62.5383 53.3604 62.4402 53.1832 62.3695C53.0066 62.2987 52.7344 62.2624 52.3674 62.2624H50.4304V64.6435C50.4304 64.9628 50.4478 65.1571 50.4811 65.2259C50.5166 65.295 50.5762 65.3513 50.6624 65.3912C50.7487 65.433 50.9144 65.4529 51.1555 65.4529H52.6437C53.139 65.4529 53.4996 65.424 53.7251 65.3677C53.9485 65.3114 54.1652 65.1988 54.3708 65.0319C54.6384 64.8123 54.9128 64.4801 55.1934 64.0373H55.4588L54.7004 65.8449H47.9224V65.6488H48.2345C48.4423 65.6488 48.6391 65.6073 48.8247 65.5256C48.9643 65.4693 49.0593 65.3838 49.1079 65.2696C49.1586 65.1551 49.1829 64.9229 49.1829 64.5708V59.8777C49.1829 59.4204 49.1278 59.139 49.015 59.0338C48.8581 58.8923 48.5992 58.8216 48.2345 58.8216H47.9224V58.6254H54.7025L54.7954 60.2154H54.5434C54.4527 59.8324 54.3531 59.5693 54.2425 59.4259C54.1319 59.2824 53.9684 59.1734 53.7538 59.0975C53.5815 59.0448 53.2763 59.0175 52.8406 59.0175H50.4304ZM61.8518 58.4621V60.9557H61.6129C61.5356 60.4765 61.3964 60.0954 61.1952 59.8124C60.9937 59.5291 60.7065 59.3043 60.3327 59.1374C59.9611 58.9702 59.5764 58.8869 59.1781 58.8869C58.7271 58.8869 58.3555 58.9994 58.0615 59.2243C57.7674 59.4494 57.6192 59.7073 57.6192 59.9938C57.6192 60.2135 57.712 60.4148 57.8979 60.5965C58.1677 60.8615 58.8046 61.2172 59.8129 61.66C60.6355 62.0228 61.1973 62.3006 61.4979 62.4929C61.7988 62.6872 62.0309 62.9139 62.1922 63.177C62.3538 63.4403 62.4355 63.7144 62.4355 64.0028C62.4355 64.5492 62.1769 65.0191 61.6617 65.4149C61.1441 65.8105 60.4785 66.0083 59.6671 66.0083C59.4104 66.0083 59.1716 65.9919 58.946 65.9591C58.8112 65.9411 58.5349 65.8758 58.1122 65.7633C57.6921 65.6507 57.4245 65.5944 57.3118 65.5944C57.2036 65.5944 57.1174 65.6217 57.0554 65.6742C56.9934 65.7288 56.947 65.8395 56.9162 66.0083H56.6773V63.5365H56.9162C57.0289 64.0537 57.1791 64.4421 57.3694 64.6981C57.5597 64.9557 57.8515 65.1699 58.2427 65.3384C58.6343 65.5092 59.0634 65.5944 59.5298 65.5944C60.0695 65.5944 60.4984 65.4764 60.8102 65.2423C61.1242 65.0065 61.2812 64.7287 61.2812 64.4093C61.2812 64.2315 61.2216 64.0517 61.1042 63.8703C60.9849 63.6889 60.8015 63.5201 60.5514 63.3622C60.3835 63.2551 59.9213 63.03 59.1672 62.6853C58.4131 62.3424 57.8758 62.0665 57.5575 61.8613C57.2389 61.6562 56.9956 61.4275 56.8321 61.1808C56.6661 60.9322 56.5844 60.6579 56.5844 60.3604C56.5844 59.8433 56.8277 59.3966 57.3118 59.0229C57.7961 58.6492 58.4153 58.4621 59.1628 58.4621C59.6316 58.4621 60.1268 58.5566 60.651 58.7434C60.8943 58.8325 61.0644 58.8759 61.164 58.8759C61.2768 58.8759 61.3696 58.8486 61.4403 58.7943C61.5113 58.738 61.5686 58.629 61.6129 58.4621H61.8518Z" fill="white"/>
<path d="M70.4758 78.5423C70.8211 78.5423 71.1578 78.6308 71.4873 78.8076C71.8157 78.9854 72.0726 79.2389 72.2558 79.5692C72.4393 79.899 72.5313 80.2434 72.5313 80.6019C72.5313 80.9567 72.4409 81.2974 72.2597 81.6244C72.0792 81.9522 71.825 82.2063 71.4993 82.3869C71.1728 82.5685 70.8323 82.6587 70.4758 82.6587C70.1195 82.6587 69.7779 82.5685 69.4522 82.3869C69.1257 82.2063 68.8715 81.9522 68.69 81.6244C68.5076 81.2974 68.4175 80.9567 68.4175 80.6019C68.4175 80.2434 68.5095 79.899 68.6938 79.5692C68.8781 79.2389 69.135 78.9854 69.4642 78.8076C69.7927 78.6308 70.1307 78.5423 70.4758 78.5423ZM70.4758 78.883C70.1864 78.883 69.9054 78.9576 69.6319 79.1056C69.3583 79.2537 69.1443 79.466 68.9897 79.7408C68.8352 80.0162 68.7579 80.303 68.7579 80.6019C68.7579 80.898 68.8344 81.1821 68.9859 81.4539C69.1377 81.7258 69.3498 81.938 69.6226 82.0899C69.895 82.2418 70.179 82.318 70.4758 82.318C70.7717 82.318 71.0565 82.2418 71.3289 82.0899C71.6017 81.938 71.813 81.7258 71.9637 81.4539C72.1144 81.1821 72.1898 80.898 72.1898 80.6019C72.1898 80.303 72.1136 80.0162 71.9599 79.7408C71.8064 79.466 71.5924 79.2537 71.318 79.1056C71.0434 78.9576 70.7624 78.883 70.4758 78.883ZM69.5732 81.7389V79.5247H70.3335C70.594 79.5247 70.7818 79.5441 70.8981 79.5851C71.0147 79.626 71.1067 79.6979 71.1766 79.7992C71.2454 79.9017 71.2798 80.0099 71.2798 80.1243C71.2798 80.2863 71.2222 80.4268 71.1067 80.547C70.9912 80.6672 70.8378 80.7341 70.6469 80.7491C70.725 80.7816 70.7884 80.8207 70.835 80.8663C70.9243 80.954 71.0333 81.1002 71.1624 81.3059L71.4324 81.7389H70.9959L70.7996 81.3897C70.645 81.116 70.5214 80.9436 70.4263 80.8748C70.3614 80.8234 70.2655 80.7983 70.1399 80.7983H69.9305V81.7389H69.5732ZM69.9305 80.4931H70.3641C70.5708 80.4931 70.7122 80.4615 70.7875 80.4C70.8629 80.3385 70.9011 80.2566 70.9011 80.1541C70.9011 80.0888 70.8826 80.0304 70.8462 79.9782C70.8099 79.9268 70.7597 79.8878 70.6955 79.8626C70.6303 79.8367 70.5112 79.8244 70.3362 79.8244H69.9305V80.4931Z" fill="white"/>
</svg>
